<svg id="Layer_1" data-name="Layer 1" xmlns="http://www.w3.org/2000/svg" viewBox="0 0 587.44 287.84"><defs><style>.cls-1{fill:#f49c1b;}.cls-2{fill:#222;}</style></defs><title>logo-1</title><path class="cls-1" d="M857.64,536.75c0-3.34-6.42-2.43-6.42-2.43a2018,2018,0,0,1-287.27,20.5,2018,2018,0,0,1-287.27-20.5s-6.42-.91-6.42,2.43c0,0-.82,3.35,6.42,5.18a1158.46,1158.46,0,0,0,287.27,36,1158.46,1158.46,0,0,0,287.27-36C858.46,540.1,857.64,536.75,857.64,536.75Z" transform="translate(-270.22 -290.1)"/><path class="cls-2" d="M364.2,402.54H308.68l-15.32,39H270.27L326,300.19h20.65l56,141.31H379.3Zm-7.55-18.77-20.21-54.71L316,383.76Z" transform="translate(-270.22 -290.1)"/><path class="cls-2" d="M498.54,344.2l-40.64,97.3H437.7l-40.64-97.3h22.65l28,67.22,28.2-67.22Z" transform="translate(-270.22 -290.1)"/><path class="cls-2" d="M589.37,378.31V441.5H568.5V430c-4,4.24-13.1,11.51-29.76,12.92-25.09,2-38.64-13.12-36.64-29.07,2.44-19.18,17.1-24.83,39.08-30.08,13.77-3.23,25.54-4,26.65-10.9,1.56-9.49-10.44-13.73-19.54-13.12-10.66.4-19.54,5-22.65,15.34l-19.1-3.63c2.66-12.31,15.54-28.87,43.3-28.87C572.27,342.58,589.37,352.47,589.37,378.31ZM568.5,395.67s-9.55,2.42-23.76,5.65c-19.1,4.44-20.21,12.72-19.54,16.55.67,4.44,4.66,8.48,16.43,7.67,10.88-.81,26.87-10.3,26.87-25.64Z" transform="translate(-270.22 -290.1)"/><path class="cls-2" d="M630.67,290.1V441.5H609.36V290.1Z" transform="translate(-270.22 -290.1)"/><path class="cls-2" d="M751.7,392.85c0,27.46-21.1,50.06-52.18,50.06-30.86,0-52.18-22.61-52.18-50.06s21.1-50.06,52.18-50.06S751.7,365.39,751.7,392.85Zm-22.43,0c0-16.76-10.21-30.89-29.76-30.89-19.32,0-29.76,14.13-29.76,30.89s10.44,30.89,29.76,30.89S729.27,409.6,729.27,392.85Z" transform="translate(-270.22 -290.1)"/><path class="cls-2" d="M857.62,386.59V441.5h-21.1V388.41c0-19-10-26.45-22.43-26.45-13.1,0-23.54,7.07-23.54,25.23v54.3h-21.1V344.2h21.1v9.29a39.39,39.39,0,0,1,27.53-10.7C843.19,342.78,857.62,358.53,857.62,386.59Z" transform="translate(-270.22 -290.1)"/><path class="cls-2" d="M377.4,480.44A15.08,15.08,0,0,1,390,486.82l.11.15,4-1.86-.14-.22a19.5,19.5,0,1,0,0,21.51l.14-.21-3.86-1.84-.17-.08-.11.16a15,15,0,0,1-12.57,6.44,15.21,15.21,0,0,1,0-30.43Z" transform="translate(-270.22 -290.1)"/><path class="cls-2" d="M410.62,487.87c-7.62,0-13.37,5.87-13.37,13.67a13.46,13.46,0,1,0,13.37-13.67Zm0,23c-5.17,0-8.79-3.84-8.79-9.33s3.61-9.44,8.79-9.44,9,4,9,9.44S415.89,510.86,410.62,510.86Z" transform="translate(-270.22 -290.1)"/><polygon class="cls-2" points="184.09 217.39 177.4 198.15 173.11 198.15 166.42 217.39 159.89 198.15 155.11 198.15 164.1 224.62 168.56 224.62 175.25 205.38 181.95 224.62 186.41 224.62 195.4 198.15 190.68 198.15 184.09 217.39"/><path class="cls-2" d="M480.17,487.87c-7.62,0-13.37,5.87-13.37,13.67a13.46,13.46,0,1,0,13.37-13.67Zm0,23c-5.17,0-8.79-3.84-8.79-9.33s3.61-9.44,8.79-9.44,9,4,9,9.44S485.44,510.86,480.17,510.86Z" transform="translate(-270.22 -290.1)"/><path class="cls-2" d="M510.32,487.87a10.62,10.62,0,0,0-7.65,3.06v-2.68h-4.59v26.47h4.59V500.46c0-5.17,2.63-8.25,7-8.25a9.82,9.82,0,0,1,1.83.16l.22,0,.89-4.41-.25,0C511.71,487.93,511,487.87,510.32,487.87Z" transform="translate(-270.22 -290.1)"/><polygon class="cls-2" points="267.5 198.15 261.32 198.15 250.13 209.7 250.13 186.38 245.6 186.38 245.6 224.62 250.13 224.62 250.13 216.07 253.97 212.11 263.44 224.53 263.51 224.62 269.12 224.62 257.12 208.87 267.5 198.15"/><rect class="cls-2" x="272.64" y="198.15" width="4.59" height="26.47"/><path class="cls-2" d="M545.13,478.91a2.41,2.41,0,1,0,2.55,2.44A2.47,2.47,0,0,0,545.13,478.91Z" transform="translate(-270.22 -290.1)"/><path class="cls-2" d="M565.7,487.87a10.69,10.69,0,0,0-7.71,3.07v-2.69h-4.53v26.47H558V500.46c0-5.17,2.63-8.25,7-8.25s6.75,2.59,6.75,7.93v14.58h4.53V500.13C576.3,492,572.73,487.87,565.7,487.87Z" transform="translate(-270.22 -290.1)"/><path class="cls-2" d="M601.87,491.39a11.57,11.57,0,0,0-8.73-3.52c-7.55,0-13,5.75-13,13.67s5.48,13.56,13,13.56a11.57,11.57,0,0,0,8.73-3.52v1.51c0,6.19-3.06,9.6-8.62,9.6a9.32,9.32,0,0,1-7.8-3.78l-.12-.18-3.79,2.17.13.2c2.26,3.54,6.81,5.83,11.58,5.83,8.27,0,13.2-5,13.2-13.5V488.25h-4.59Zm-8.73,19.48c-5.13,0-8.45-3.66-8.45-9.33,0-4.7,2.61-9.44,8.45-9.44,5.12,0,8.56,3.79,8.56,9.44S598.25,510.86,593.14,510.86Z" transform="translate(-270.22 -290.1)"/><path class="cls-2" d="M642.77,493.33c-7.87-1.31-10.52-2.9-10.52-6.31,0-4.18,3.57-6.58,9.81-6.58,2.44,0,8.26.52,9.47,5.34l.06.24,4.14-1.37.21-.07-.07-.21c-1.59-4.94-7.14-8.25-13.82-8.25-5,0-9,1.35-11.52,3.91a9.61,9.61,0,0,0-2.81,7c.06,7.48,7.41,9.39,14.3,10.58,8.06,1.4,10.92,2.57,10.92,6.36,0,5.42-6.67,6.85-10.2,6.85-5.87,0-10.14-2-11.69-5.59L631,505l-4.33,1.43.09.22c1.58,4.09,6.64,8.46,16.14,8.46,7.07,0,14.68-3.5,14.68-11.18S649.91,494.43,642.77,493.33Z" transform="translate(-270.22 -290.1)"/><path class="cls-2" d="M675.21,487.87a11.77,11.77,0,0,0-8.78,3.58v-3.21H661.9v38.24h4.53V511.57a11.77,11.77,0,0,0,8.78,3.58c7.55,0,13-5.73,13-13.61S682.76,487.87,675.21,487.87Zm0,4.23c5.84,0,8.45,4.74,8.45,9.44,0,5.67-3.32,9.33-8.45,9.33s-8.56-3.75-8.56-9.33S670.09,492.1,675.21,492.1Z" transform="translate(-270.22 -290.1)"/><path class="cls-2" d="M713.7,497.06c0-5.75-3.83-9.19-10.26-9.19-6.84,0-10.07,3.8-10.82,7.36l0,.22,4,.9.06-.2c.66-2.14,2-4.32,6.64-4.32,5.1,0,6,2.77,6,4.42s-1.38,2.25-5.65,2.9c-9.07,1.4-12.77,4-12.77,9,0,4.24,3.54,7,9,7a14.86,14.86,0,0,0,9.3-3.27v2.89h4.53v-.23C713.75,514.37,713.7,502.28,713.7,497.06ZM700.27,511c-.19,0-4.59,0-4.59-3.12,0-2.47,2.26-3.7,8.65-4.69l2.36-.35c.95-.14,1.85-.27,2.65-.41v.92a6.88,6.88,0,0,1-2,5A9.78,9.78,0,0,1,700.27,511Z" transform="translate(-270.22 -290.1)"/><path class="cls-2" d="M730.87,492.1a8.88,8.88,0,0,1,7.52,3.84l.11.15,4-1.8-.13-.22a13.14,13.14,0,0,0-11.47-6.21c-7.59,0-13.32,5.87-13.32,13.67a13.17,13.17,0,0,0,13.37,13.56,13,13,0,0,0,11.41-6.1l.13-.21-4-1.86-.11.16a8.7,8.7,0,0,1-7.46,3.79c-5.17,0-8.79-3.84-8.79-9.33S725.73,492.1,730.87,492.1Z" transform="translate(-270.22 -290.1)"/><path class="cls-2" d="M757.69,487.87c-7.65,0-13.2,5.75-13.2,13.67A13.25,13.25,0,0,0,758,515.09a12.77,12.77,0,0,0,11.3-6.1l.13-.21-4-1.86-.11.16a8.37,8.37,0,0,1-7.35,3.79,8.57,8.57,0,0,1-8.81-7.75h21v-.22c0-.21,0-.44,0-.66s0-.47,0-.69C770.26,493.36,765.21,487.87,757.69,487.87Zm0,4.23c4.11,0,7,2.43,7.88,6.67H749.41A8.2,8.2,0,0,1,757.69,492.1Z" transform="translate(-270.22 -290.1)"/></svg>